HIERARCHY
ROOT Hips
{
	OFFSET 0.053599 88.859886 3.107447
	CHANNELS 6 Xposition Yposition Zposition Zrotation Yrotation Xrotation 
	JOINT Spine
	{
		OFFSET -0.000000 8.814246 -2.080107
		CHANNELS 3 Zrotation Yrotation Xrotation
		JOINT Spine1
		{
			OFFSET 0.000000 8.844141 0.000000
			CHANNELS 3 Zrotation Yrotation Xrotation
			JOINT Spine2
			{
				OFFSET -0.000000 11.682268 0.000000
				CHANNELS 3 Zrotation Yrotation Xrotation
				JOINT Spine3
				{
					OFFSET 0.000000 11.746700 0.000000
					CHANNELS 3 Zrotation Yrotation Xrotation
					JOINT Neck
					{
						OFFSET -0.000000 17.658264 -0.000000
						CHANNELS 3 Zrotation Yrotation Xrotation
						JOINT Neck1
						{
							OFFSET -0.000000 5.101515 -0.000000
							CHANNELS 3 Zrotation Yrotation Xrotation
							JOINT Head
							{
								OFFSET 0.000000 5.101515 0.000000
								CHANNELS 3 Zrotation Yrotation Xrotation
								JOINT HeadEnd
								{
									OFFSET 0.000000 11.655085 0.000000
									CHANNELS 3 Zrotation Yrotation Xrotation
									End Site
									{
										OFFSET 0.000000 0.000000 0.000000
									}
								}
							}
						}
					}
					JOINT RightShoulder
					{
						OFFSET -2.625389 11.175210 0.000000
						CHANNELS 3 Zrotation Yrotation Xrotation
						JOINT RightArm
						{
							OFFSET -0.000000 10.434715 -0.000000
							CHANNELS 3 Zrotation Yrotation Xrotation
							JOINT RightForeArm
							{
								OFFSET -0.000000 29.628420 0.000000
								CHANNELS 3 Zrotation Yrotation Xrotation
								JOINT RightHand
								{
									OFFSET -0.000000 22.857611 0.000000
									CHANNELS 3 Zrotation Yrotation Xrotation
									JOINT RightHandThumb1
									{
										OFFSET -2.867323 3.959563 2.944291
										CHANNELS 3 Zrotation Yrotation Xrotation
										JOINT RightHandThumb2
										{
											OFFSET 0.000000 3.350399 0.000000
											CHANNELS 3 Zrotation Yrotation Xrotation
											JOINT RightHandThumb3
											{
												OFFSET 0.000000 3.756509 -0.000000
												CHANNELS 3 Zrotation Yrotation Xrotation
												JOINT RightHandThumb4
												{
													OFFSET 0.000000 3.147345 0.000000
													CHANNELS 3 Zrotation Yrotation Xrotation
													End Site
													{
														OFFSET 0.000000 0.000000 0.000000
													}
												}
											}
										}
									}
									JOINT RightHandIndex1
									{
										OFFSET -0.086752 10.030893 2.345280
										CHANNELS 3 Zrotation Yrotation Xrotation
										JOINT RightHandIndex2
										{
											OFFSET -0.000000 4.061090 0.000000
											CHANNELS 3 Zrotation Yrotation Xrotation
											JOINT RightHandIndex3
											{
												OFFSET -0.000000 3.248873 0.000000
												CHANNELS 3 Zrotation Yrotation Xrotation
												JOINT RightHandIndex4
												{
													OFFSET 0.000000 2.639709 -0.000000
													CHANNELS 3 Zrotation Yrotation Xrotation
													End Site
													{
														OFFSET 0.000000 0.000000 0.000000
													}
												}
											}
										}
									}
									JOINT RightHandMiddle1
									{
										OFFSET 0.104102 9.502952 0.006768
										CHANNELS 3 Zrotation Yrotation Xrotation
										JOINT RightHandMiddle2
										{
											OFFSET 0.000000 4.568727 0.000000
											CHANNELS 3 Zrotation Yrotation Xrotation
											JOINT RightHandMiddle3
											{
												OFFSET 0.000000 3.654981 -0.000000
												CHANNELS 3 Zrotation Yrotation Xrotation
												JOINT RightHandMiddle4
												{
													OFFSET -0.000000 2.741236 -0.000000
													CHANNELS 3 Zrotation Yrotation Xrotation
													End Site
													{
														OFFSET 0.000000 0.000000 0.000000
													}
												}
											}
										}
									}
									JOINT RightHandRing1
									{
										OFFSET 0.086752 8.921708 -2.267442
										CHANNELS 3 Zrotation Yrotation Xrotation
										JOINT RightHandRing2
										{
											OFFSET -0.000000 4.061090 0.000000
											CHANNELS 3 Zrotation Yrotation Xrotation
											JOINT RightHandRing3
											{
												OFFSET 0.000000 3.654981 -0.000000
												CHANNELS 3 Zrotation Yrotation Xrotation
												JOINT RightHandRing4
												{
													OFFSET 0.000000 2.741236 -0.000000
													CHANNELS 3 Zrotation Yrotation Xrotation
													End Site
													{
														OFFSET 0.000000 0.000000 0.000000
													}
												}
											}
										}
									}
									JOINT RightHandPinky1
									{
										OFFSET -0.173504 7.976997 -4.467199
										CHANNELS 3 Zrotation Yrotation Xrotation
										JOINT RightHandPinky2
										{
											OFFSET 0.000000 3.350399 -0.000000
											CHANNELS 3 Zrotation Yrotation Xrotation
											JOINT RightHandPinky3
											{
												OFFSET -0.000000 2.842763 0.000000
												CHANNELS 3 Zrotation Yrotation Xrotation
												JOINT RightHandPinky4
												{
													OFFSET -0.000000 2.639709 0.000000
													CHANNELS 3 Zrotation Yrotation Xrotation
													End Site
													{
														OFFSET 0.000000 0.000000 0.000000
													}
												}
											}
										}
									}
									JOINT RightForeArmEnd
									{
										OFFSET 0.000000 0.000000 0.000000
										CHANNELS 3 Zrotation Yrotation Xrotation
										End Site
										{
											OFFSET 0.000000 0.000000 0.000000
										}
									}
								}
								JOINT RightArmEnd
								{
									OFFSET 0.000000 0.000000 0.000000
									CHANNELS 3 Zrotation Yrotation Xrotation
									End Site
									{
										OFFSET 0.000000 0.000000 0.000000
									}
								}
							}
						}
					}
					JOINT LeftShoulder
					{
						OFFSET 2.625389 11.175210 0.000000
						CHANNELS 3 Zrotation Yrotation Xrotation
						JOINT LeftArm
						{
							OFFSET 0.000000 10.813635 -0.000000
							CHANNELS 3 Zrotation Yrotation Xrotation
							JOINT LeftForeArm
							{
								OFFSET 0.000000 28.724781 0.000000
								CHANNELS 3 Zrotation Yrotation Xrotation
								JOINT LeftHand
								{
									OFFSET 0.644384 25.716167 -0.328871
									CHANNELS 3 Zrotation Yrotation Xrotation
									JOINT LeftHandThumb1
									{
										OFFSET 2.867323 3.959563 2.944291
										CHANNELS 3 Zrotation Yrotation Xrotation
										JOINT LeftHandThumb2
										{
											OFFSET 0.000000 3.350399 0.000000
											CHANNELS 3 Zrotation Yrotation Xrotation
											JOINT LeftHandThumb3
											{
												OFFSET -0.000000 3.756509 0.000000
												CHANNELS 3 Zrotation Yrotation Xrotation
												JOINT LeftHandThumb4
												{
													OFFSET -0.000000 3.100000 0.000000
													CHANNELS 3 Zrotation Yrotation Xrotation
													End Site
													{
														OFFSET 0.000000 0.000000 0.000000
													}
												}
											}
										}
									}
									JOINT LeftHandIndex1
									{
										OFFSET 0.086752 10.030893 2.345280
										CHANNELS 3 Zrotation Yrotation Xrotation
										JOINT LeftHandIndex2
										{
											OFFSET -0.000000 4.061090 -0.000000
											CHANNELS 3 Zrotation Yrotation Xrotation
											JOINT LeftHandIndex3
											{
												OFFSET 0.000000 3.248873 -0.000000
												CHANNELS 3 Zrotation Yrotation Xrotation
												JOINT LeftHandIndex4
												{
													OFFSET 0.000000 2.639709 -0.000000
													CHANNELS 3 Zrotation Yrotation Xrotation
													End Site
													{
														OFFSET 0.000000 0.000000 0.000000
													}
												}
											}
										}
									}
									JOINT LeftHandMiddle1
									{
										OFFSET -0.104102 9.502952 0.006768
										CHANNELS 3 Zrotation Yrotation Xrotation
										JOINT LeftHandMiddle2
										{
											OFFSET -0.000000 4.568727 -0.000000
											CHANNELS 3 Zrotation Yrotation Xrotation
											JOINT LeftHandMiddle3
											{
												OFFSET 0.000000 3.654981 0.000000
												CHANNELS 3 Zrotation Yrotation Xrotation
												JOINT LeftHandMiddle4
												{
													OFFSET 0.000000 2.741236 -0.000000
													CHANNELS 3 Zrotation Yrotation Xrotation
													End Site
													{
														OFFSET 0.000000 0.000000 0.000000
													}
												}
											}
										}
									}
									JOINT LeftHandRing1
									{
										OFFSET -0.086752 8.921708 -2.267442
										CHANNELS 3 Zrotation Yrotation Xrotation
										JOINT LeftHandRing2
										{
											OFFSET 0.000000 4.061090 0.000000
											CHANNELS 3 Zrotation Yrotation Xrotation
											JOINT LeftHandRing3
											{
												OFFSET 0.000000 3.654981 0.000000
												CHANNELS 3 Zrotation Yrotation Xrotation
												JOINT LeftHandRing4
												{
													OFFSET 0.000000 2.741236 0.000000
													CHANNELS 3 Zrotation Yrotation Xrotation
													End Site
													{
														OFFSET 0.000000 0.000000 0.000000
													}
												}
											}
										}
									}
									JOINT LeftHandPinky1
									{
										OFFSET 0.173504 7.976997 -4.467199
										CHANNELS 3 Zrotation Yrotation Xrotation
										JOINT LeftHandPinky2
										{
											OFFSET -0.000000 3.350399 -0.000000
											CHANNELS 3 Zrotation Yrotation Xrotation
											JOINT LeftHandPinky3
											{
												OFFSET 0.000000 2.842763 0.000000
												CHANNELS 3 Zrotation Yrotation Xrotation
												JOINT LeftHandPinky4
												{
													OFFSET -0.000000 2.639709 -0.000000
													CHANNELS 3 Zrotation Yrotation Xrotation
													End Site
													{
														OFFSET 0.000000 0.000000 0.000000
													}
												}
											}
										}
									}
									JOINT LeftForeArmEnd
									{
										OFFSET 0.000000 0.000000 0.000000
										CHANNELS 3 Zrotation Yrotation Xrotation
										End Site
										{
											OFFSET 0.000000 0.000000 0.000000
										}
									}
								}
								JOINT LeftArmEnd
								{
									OFFSET 0.000000 0.000000 0.000000
									CHANNELS 3 Zrotation Yrotation Xrotation
									End Site
									{
										OFFSET 0.000000 0.000000 0.000000
									}
								}
							}
						}
					}
				}
			}
		}
	}
	JOINT RightUpLeg
	{
		OFFSET -11.289943 0.000000 0.000000
		CHANNELS 3 Zrotation Yrotation Xrotation
		JOINT RightLeg
		{
			OFFSET 0.000000 -38.200325 0.000000
			CHANNELS 3 Zrotation Yrotation Xrotation
			JOINT RightFoot
			{
				OFFSET -0.000000 -39.900856 -0.000000
				CHANNELS 3 Zrotation Yrotation Xrotation
				JOINT RightToeBase
				{
					OFFSET 0.000000 0.000000 15.261641
					CHANNELS 3 Zrotation Yrotation Xrotation
					JOINT RightToeBaseEnd
					{
						OFFSET 0.000000 0.000000 7.370709
						CHANNELS 3 Zrotation Yrotation Xrotation
						End Site
						{
							OFFSET 0.000000 0.000000 0.000000
						}
					}
				}
				JOINT RightLegEnd
				{
					OFFSET 0.000000 0.000000 0.000000
					CHANNELS 3 Zrotation Yrotation Xrotation
					End Site
					{
						OFFSET 0.000000 0.000000 0.000000
					}
				}
			}
			JOINT RightUpLegEnd
			{
				OFFSET 0.000000 0.000000 0.000000
				CHANNELS 3 Zrotation Yrotation Xrotation
				End Site
				{
					OFFSET 0.000000 0.000000 0.000000
				}
			}
		}
	}
	JOINT LeftUpLeg
	{
		OFFSET 11.315661 -0.000000 0.000000
		CHANNELS 3 Zrotation Yrotation Xrotation
		JOINT LeftLeg
		{
			OFFSET -0.000000 -38.200325 -0.000000
			CHANNELS 3 Zrotation Yrotation Xrotation
			JOINT LeftFoot
			{
				OFFSET 0.000000 -39.900856 -0.000000
				CHANNELS 3 Zrotation Yrotation Xrotation
				JOINT LeftToeBase
				{
					OFFSET -0.000000 -0.000000 15.261641
					CHANNELS 3 Zrotation Yrotation Xrotation
					JOINT LeftToeBaseEnd
					{
						OFFSET 0.000000 -0.000000 7.539996
						CHANNELS 3 Zrotation Yrotation Xrotation
						End Site
						{
							OFFSET 0.000000 0.000000 0.000000
						}
					}
				}
				JOINT LeftLegEnd
				{
					OFFSET 0.000000 0.000000 0.000000
					CHANNELS 3 Zrotation Yrotation Xrotation
					End Site
					{
						OFFSET 0.000000 0.000000 0.000000
					}
				}
			}
			JOINT LeftUpLegEnd
			{
				OFFSET 0.000000 0.000000 0.000000
				CHANNELS 3 Zrotation Yrotation Xrotation
				End Site
				{
					OFFSET 0.000000 0.000000 0.000000
				}
			}
		}
	}
}
MOTION
Frames: 4
Frame Time: 0.016667
-0.481208 87.280144 2.132176 0.378351 -0.382711 -11.501722 1.304188 0.127163 7.054342 0.467327 0.129584 1.087723 -0.429439 0.661150 6.381725 -0.837231 0.446825 5.480875 0.432068 0.738604 5.597651 0.149663 1.306460 -2.503133 -0.425314 -0.935971 -21.437185 0.000000 0.000000 0.000000 92.171242 -0.815585 6.739676 66.691795 -3.816714 -0.737263 -0.222453 20.664536 61.527931 9.160962 30.365490 -5.496527 8.974419 -1.640438 40.547035 -0.000001 0.000015 -21.896887 0.000017 0.000063 -15.116060 0.000007 0.000003 -0.000018 4.991155 0.115571 -0.970382 3.377958 -0.035621 0.174664 3.304132 -0.018602 0.137301 -0.000013 0.000042 -0.000007 5.052495 0.033462 -4.873734 3.237934 -0.029600 0.040928 3.330245 -0.006260 0.044910 -0.000002 0.000065 0.000002 8.271584 -0.037941 -9.633277 4.509134 0.044737 -0.075217 4.460332 0.013114 -0.056684 -0.000015 0.000448 0.000008 11.548679 -0.066910 -16.002287 5.997092 0.112327 -0.002260 5.995007 0.002648 -0.008639 -0.000453 0.000006 -0.000034 0.000000 0.000000 0.000000 0.000000 0.000000 0.000000 -89.015411 0.227552 0.508335 -72.690773 -6.268371 -9.144773 -0.139206 -19.520063 90.081436 -16.730524 -22.402689 -1.340352 -6.881113 1.312499 41.490990 0.000019 0.000020 -16.946737 0.000046 -0.000021 -11.799056 0.001384 0.000021 0.001081 4.764856 0.159212 5.367495 -0.309500 -0.033923 -0.135577 -0.502533 -0.013515 -0.111729 -0.000003 -0.000268 -0.000010 2.534629 0.071184 -0.900257 -0.771436 -0.023083 -0.058704 -0.576839 -0.000461 -0.052134 0.000313 -0.000007 0.000021 -3.130109 -0.015778 -9.833898 -2.756622 0.052703 0.043427 -2.330832 -0.000389 0.027795 -0.000862 0.000011 0.000006 -7.035357 -0.034323 -19.502491 -5.243843 0.084578 0.185350 -5.272450 0.004818 0.113405 0.000252 0.000004 -0.000051 0.000000 0.000000 0.000000 0.000000 0.000000 0.000000 -1.592549 -9.462991 17.068451 -0.062011 -0.675654 4.030964 -2.163797 -6.126778 16.138269 -1.088635 0.670383 -17.667976 0.000000 0.000000 0.000000 0.000000 0.000000 0.000000 0.000000 0.000000 0.000000 -1.415930 -3.477830 11.881596 0.052515 0.362227 9.418629 4.178226 -0.493987 15.537750 0.210356 -0.424625 -20.188065 0.000000 0.000000 0.000000 0.000000 0.000000 0.000000 0.000000 0.000000 0.000000 
-0.485259 87.280212 2.137621 0.377833 -0.304309 -11.509349 1.295520 0.127458 7.065724 0.456820 0.135676 1.092227 -0.423922 0.647508 6.406660 -0.837938 0.442606 5.479111 0.528749 0.720807 5.570785 0.161205 1.308733 -2.504072 -0.421131 -0.932477 -21.409784 0.000000 0.000000 0.000000 92.174644 -0.806031 6.727830 66.758919 -3.770408 -0.806304 -0.204044 20.728483 61.064362 9.092677 30.384583 -5.612409 9.022817 -1.645357 40.526592 -0.000001 0.000016 -22.012476 0.000017 0.000063 -15.193414 0.000007 0.000003 -0.000018 5.232654 0.114884 -1.112192 3.529196 -0.038520 0.181796 3.461295 -0.021100 0.143610 -0.000013 0.000042 -0.000008 5.281830 0.033179 -4.964341 3.389331 -0.030594 0.043240 3.479528 -0.007005 0.046965 -0.000002 0.000067 0.000001 8.501342 -0.037765 -9.637733 4.680159 0.045807 -0.077577 4.629682 0.013987 -0.058290 -0.000014 0.000402 0.000008 11.764086 -0.067727 -15.926575 6.169294 0.114427 -0.001798 6.173156 0.004426 -0.007673 -0.000434 0.000006 -0.000034 0.000000 0.000000 0.000000 0.000000 0.000000 0.000000 -88.982735 0.225626 0.512634 -72.735886 -6.359992 -9.100057 -0.182183 -19.613319 89.410645 -16.444199 -22.672087 -1.654817 -6.941079 1.321355 41.461216 0.000019 0.000020 -17.103973 0.000046 -0.000021 -11.904738 0.001380 0.000020 0.001080 4.378304 0.159179 5.141434 -0.386328 -0.035908 -0.143880 -0.580251 -0.015091 -0.118589 -0.000003 -0.000302 -0.000010 2.168413 0.070999 -1.049318 -0.851042 -0.023890 -0.061633 -0.656008 -0.001176 -0.054531 0.000325 -0.000007 0.000023 -3.487503 -0.015526 -9.856814 -2.869402 0.053602 0.045915 -2.441837 0.000156 0.029768 -0.000835 0.000011 0.000006 -7.366594 -0.034270 -19.398071 -5.363972 0.085707 0.187230 -5.392231 0.005522 0.114728 0.000242 0.000005 -0.000051 0.000000 0.000000 0.000000 0.000000 0.000000 0.000000 -1.590700 -9.486757 17.073324 -0.062168 -0.674884 4.060937 -2.163921 -6.192216 16.109287 -1.088349 0.671969 -17.665588 0.000000 0.000000 0.000000 0.000000 0.000000 0.000000 0.000000 0.000000 0.000000 -1.408598 -3.500916 11.889791 0.052161 0.362527 9.431829 4.192783 -0.546622 15.525342 0.214242 -0.424606 -20.175947 0.000000 0.000000 0.000000 0.000000 0.000000 0.000000 0.000000 0.000000 0.000000 
-0.489449 87.280571 2.143370 0.377697 -0.223234 -11.515361 1.288592 0.127899 7.077868 0.446786 0.141388 1.094744 -0.417966 0.631900 6.428442 -0.837560 0.438302 5.475722 0.620750 0.705811 5.538786 0.171770 1.312003 -2.507038 -0.418420 -0.928575 -21.378695 0.000000 0.000000 0.000000 92.170013 -0.795398 6.717069 66.832756 -3.735118 -0.886450 -0.184436 20.797401 60.613842 9.030831 30.445610 -5.750934 9.063964 -1.649656 40.509438 -0.000001 0.000017 -22.110258 0.000017 0.000064 -15.258717 0.000008 0.000003 -0.000018 5.445158 0.114159 -1.253288 3.667701 -0.041553 0.189153 3.606306 -0.023693 0.150117 -0.000013 0.000042 -0.000008 5.487522 0.032913 -5.054438 3.529740 -0.031623 0.045699 3.618195 -0.007815 0.049124 -0.000003 0.000068 0.000001 8.714539 -0.037534 -9.646091 4.841657 0.046942 -0.080292 4.789133 0.014928 -0.060136 -0.000014 0.000354 0.000008 11.966340 -0.068416 -15.857977 6.333719 0.116763 -0.002344 6.343365 0.006533 -0.007659 -0.000415 0.000006 -0.000033 0.000000 0.000000 0.000000 0.000000 0.000000 0.000000 -88.943031 0.221709 0.516933 -72.776917 -6.456048 -9.057915 -0.226068 -19.695822 88.717705 -16.097225 -22.923807 -2.023952 -6.987264 1.328328 41.437935 0.000019 0.000020 -17.227409 0.000044 -0.000021 -11.987598 0.001373 0.000020 0.001075 4.061468 0.159022 4.932733 -0.458505 -0.037874 -0.151545 -0.653317 -0.016689 -0.124941 -0.000003 -0.000340 -0.000010 1.869930 0.070786 -1.186181 -0.925843 -0.024679 -0.064412 -0.730565 -0.001880 -0.056753 0.000337 -0.000007 0.000024 -3.779418 -0.015255 -9.872723 -2.971200 0.054503 0.048416 -2.542996 0.000727 0.031748 -0.000800 0.000011 0.000006 -7.639547 -0.034140 -19.292160 -5.471040 0.086979 0.189902 -5.499689 0.006400 0.116815 0.000234 0.000005 -0.000051 0.000000 0.000000 0.000000 0.000000 0.000000 0.000000 -1.587032 -9.512899 17.077885 -0.062369 -0.674037 4.089441 -2.164243 -6.267906 16.081717 -1.088152 0.673632 -17.665213 0.000000 0.000000 0.000000 0.000000 0.000000 0.000000 0.000000 0.000000 0.000000 -1.400816 -3.528244 11.894195 0.051957 0.363497 9.446557 4.206680 -0.601484 15.515030 0.218235 -0.425237 -20.163210 0.000000 0.000000 0.000000 0.000000 0.000000 0.000000 0.000000 0.000000 0.000000 
-0.493899 87.281364 2.149137 0.377196 -0.142348 -11.518599 1.284193 0.128146 7.089791 0.437602 0.146375 1.096014 -0.411953 0.614036 6.444283 -0.836013 0.433557 5.470570 0.704566 0.696903 5.504072 0.180807 1.318570 -2.511083 -0.417693 -0.924183 -21.345381 0.000000 0.000000 0.000000 92.155724 -0.783446 6.707135 66.911842 -3.711723 -0.977826 -0.164139 20.871662 60.190022 8.965549 30.528000 -5.917589 9.097436 -1.653272 40.495712 -0.000002 0.000017 -22.189280 0.000017 0.000064 -15.311572 0.000008 0.000002 -0.000018 5.627154 0.113467 -1.390323 3.790027 -0.044486 0.196216 3.735540 -0.026167 0.156362 -0.000013 0.000042 -0.000009 5.668533 0.032686 -5.141009 3.655543 -0.032594 0.048108 3.742695 -0.008616 0.051220 -0.000003 0.000070 0.000001 8.910559 -0.037268 -9.655509 4.989985 0.048009 -0.083055 4.934939 0.015835 -0.061995 -0.000013 0.000303 0.000009 12.154002 -0.069053 -15.794122 6.486444 0.118948 -0.003204 6.501403 0.008611 -0.008032 -0.000398 0.000006 -0.000033 0.000000 0.000000 0.000000 0.000000 0.000000 0.000000 -88.896286 0.215773 0.519892 -72.815231 -6.558467 -9.022348 -0.271578 -19.768736 88.010872 -15.688633 -23.148132 -2.447942 -7.018392 1.333142 41.422001 0.000019 0.000020 -17.312967 0.000043 -0.000022 -12.044949 0.001363 0.000020 0.001068 3.823440 0.158800 4.748614 -0.523779 -0.039630 -0.157882 -0.719354 -0.018116 -0.130196 -0.000003 -0.000382 -0.000010 1.647588 0.070573 -1.304731 -0.993526 -0.025375 -0.066778 -0.798071 -0.002509 -0.058591 0.000347 -0.000007 0.000025 -3.998680 -0.014996 -9.877461 -3.059437 0.055277 0.050606 -2.631585 0.001241 0.033498 -0.000759 0.000011 0.000007 -7.847996 -0.034100 -19.183201 -5.562113 0.088087 0.192536 -5.591727 0.007199 0.118996 0.000227 0.000005 -0.000051 0.000000 0.000000 0.000000 0.000000 0.000000 0.000000 -1.580832 -9.540600 17.080778 -0.062621 -0.673052 4.115929 -2.164982 -6.350800 16.057434 -1.087933 0.675102 -17.667601 0.000000 0.000000 0.000000 0.000000 0.000000 0.000000 0.000000 0.000000 0.000000 -1.391554 -3.558034 11.893955 0.051918 0.365053 9.462368 4.218937 -0.656228 15.508031 0.222304 -0.426399 -20.151106 0.000000 0.000000 0.000000 0.000000 0.000000 0.000000 0.000000 0.000000 0.000000 
